<svg height="512" viewBox="0 0 64 64" width="512" xmlns="http://www.w3.org/2000/svg"><g id="outline"><path d="m61 39h-3v-2h2v-2h-10v-3a1 1 0 0 0 -1-1h-1v-5a1 1 0 0 0 -1-1h-5v-5a1 1 0 0 0 -1-1h-4a1 1 0 0 0 -1 1v5h-2v-10a1 1 0 0 0 -1-1 2.892 2.892 0 0 1 -1.554-.395 5.257 5.257 0 0 0 -4.9 0 3.245 3.245 0 0 1 -3.1 0 4.867 4.867 0 0 0 -2.446-.605 1 1 0 0 0 -1 1v5a1 1 0 0 0 1 1 2.879 2.879 0 0 1 1.55.395 5.249 5.249 0 0 0 4.893 0 3.256 3.256 0 0 1 3.109 0 5.2 5.2 0 0 0 1.448.51v4.095h-5a1 1 0 0 0 -.949.684l-1.772 5.316h-11.279a1 1 0 0 0 -.895.553l-2 4a1 1 0 0 0 .895 1.447h8.057l-.75 2h-9.307a1 1 0 0 0 -.707.293l-6 6a1 1 0 0 0 -.293.707v4a1 1 0 0 0 1 1h48c3.073 0 5.643-1.794 7.857-5.485l3-5a1 1 0 0 0 -.857-1.515zm-7-2h2v2h-2zm-4 0h2v2h-2zm-12-16h2v4h-2zm-6.554-2.395a5.257 5.257 0 0 0 -4.9 0 3.245 3.245 0 0 1 -3.1 0 5.066 5.066 0 0 0 -1.446-.52v-2.938a4.493 4.493 0 0 1 .55.248 5.249 5.249 0 0 0 4.893 0 3.256 3.256 0 0 1 3.109 0 5.04 5.04 0 0 0 1.448.52v2.939a4.709 4.709 0 0 1 -.554-.249zm-3.725 8.395h18.279v4h-19.613zm-5.028 6h25.307v6h-27.557zm-10.075 2 1-2h6.939l-.75 2zm38.382 14h-47v-2h51.242a5.853 5.853 0 0 1 -4.242 2zm5.808-4h-51.394l4-4h4.586v2h2v-2h10v2h2v-2h9v2h2v-2h10v2h2v-2h8.234s-2.314 3.828-2.426 4z"/><path d="m23 35h2v2h-2z"/><path d="m28 35h2v2h-2z"/><path d="m33 35h2v2h-2z"/><path d="m38 35h2v2h-2z"/><path d="m43 35h2v2h-2z"/></g></svg>